<svg width="35" height="35" viewBox="0 0 35 35" fill="none" xmlns="http://www.w3.org/2000/svg">
<g id="Frame">
<path id="Vector" d="M12.7582 29.7612C12.7582 30.5405 13.3958 31.1781 14.1752 31.1781H19.8428C20.6221 31.1781 21.2597 30.5405 21.2597 29.7612V28.3443H12.7582V29.7612ZM17.009 2.83981C11.5397 2.83981 7.09058 7.28893 7.09058 12.7582C7.09058 16.1305 8.77671 19.0918 11.3413 20.8913V24.0935C11.3413 24.8728 11.9789 25.5105 12.7582 25.5105H21.2597C22.039 25.5105 22.6766 24.8728 22.6766 24.0935V20.8913C25.2413 19.0918 26.9274 16.1305 26.9274 12.7582C26.9274 7.28893 22.4783 2.83981 17.009 2.83981ZM21.0472 18.5676L19.8428 19.4177V22.6766H14.1752V19.4177L12.9708 18.5676C12.0321 17.9168 11.2647 17.0486 10.7342 16.037C10.2038 15.0254 9.92593 13.9005 9.92441 12.7582C9.92441 8.84753 13.0983 5.67364 17.009 5.67364C20.9197 5.67364 24.0936 8.84753 24.0936 12.7582C24.0936 15.0678 22.96 17.2357 21.0472 18.5676Z" fill="#F5F5F5"/>
</g>
</svg>
